<svg xmlns="http://www.w3.org/2000/svg" viewBox="0 0 903.67 1296.81"><defs><style>.cls-1{fill:#ffe300;}.cls-2{fill:#fb0000;}.cls-3{fill:#ff8600;}.cls-4{fill:#ff9f00;}.cls-5{fill:#ff6900;}.cls-6{fill:#ff4600;}.cls-7{fill:#ff2f00;}.cls-8{fill:#ce0000;}.cls-9{fill:#ffc200;}.cls-10{fill:#ff5d00;}.cls-11{fill:#ff4500;}</style></defs><title>fenix</title><g id="Camada_2" data-name="Camada 2"><g id="Layer_1" data-name="Layer 1"><path class="cls-1" d="M557.17,636.89c-10.93,14,40.21,119.08,22.12,178,.22,1.32.41,2.41.55,3.25l.05.29,0,.22c0,.18.06.34.09.49.75,4,33-109.86,33.26-111.21l-.08-.08,0,0-.22-.22-.06-.06-.37-.38,0,0c-5-5.11-32.55-33.9-55.09-70.53h0q-1.37-2.23-2.72-4.49a44.83,44.83,0,0,0,2.51,4.47C557.18,636.68,557.17,636.79,557.17,636.89Z"/><path class="cls-1" d="M384.31,470.9q-.11-4.64-.35-9.29c-23,73-144.29,90.23-223,51.93-15-13.54-28.86-30.66-40.65-52.19l-.54-.18c38.3,70,98,93.42,150.3,98.95-2.18-.25-4.37-.52-6.57-.82C318.6,559.8,374.74,529.89,384.31,470.9Z"/><path class="cls-2" d="M542.27,249c20.74,2.72,36.44,16.83,42.52,36.53.53,0,.83-.09.83-.21.39-50.68-38-61-75.46-60.77-5.4,0-10.77.29-16,.68-18.31,1.36-35.54,2.74-51.25,2.62C471.69,243.67,509.85,243.44,542.27,249Z"/><path class="cls-3" d="M560.48,284.06l-1.23,0c-37.63-9.16-86.56,27.58-136.92,1.34l-.26,0c4.82,21.9.2,46.86-7.22,69,28.68-3.9,62.2-30.79,92.28-47-.49.85-.94,1.73-1.37,2.64,5.1-10.41,14.48-17.47,24.31-21.92,1.67-.75,3.35-1.44,5-2a22.55,22.55,0,0,1,2.31-.69l.17,0,.83-.18C544.29,283.81,552.46,283.75,560.48,284.06Z"/><path class="cls-4" d="M501.77,328.14a59,59,0,0,1,1.55-10.69,55.35,55.35,0,0,1,3.82-10.17c-30.08,16.25-62.64,42.49-92.28,47-8.51,21.8-30.13,60.93-30.18,61C450.93,419.25,501.77,328.05,501.77,328.14Z"/><path class="cls-5" d="M559.25,284l1.23,0c4.06.16,8,.42,11.61.68-37.67-34.11-104-11.55-152.56-24.92-19.52-5.21-33.85-17.87-44.82-33.73,1.75,22,10.81,52.61,46.76,58.81l.16.08.71.37C472.69,311.6,521.62,274.85,559.25,284Z"/><path class="cls-6" d="M419.52,259.81c48.51,13.37,114.9-9.19,152.56,24.92,6,.43,10.86.85,12.7.76-6.08-19.7-21.78-33.81-42.52-36.53-32.42-5.52-70.58-5.29-99.37-21.15q-3.86,0-7.59-.19l-.57,0-1.63-.09c-24.11-1.34-44-7.42-57.76-24.61l-.13-.16a111,111,0,0,0-.53,23.34C385.68,241.95,400,254.6,419.52,259.81Z"/><path class="cls-7" d="M892.33,2.66c-18.91,89.8-85.17,187.79-192,236.58-32.69,102.8-96.6,188-144.26,194,32,5,84-7.49,166.71-77.28,28.31-18.6,227.57-179.12,170.74-356l0,.09h0v0a.74.74,0,0,1,0,.11l0,.06a1.17,1.17,0,0,1-.05.14v0l0,0-.28.61h0l0,0,0,.05-.15.31,0,0-.48,1v0Z"/><path class="cls-8" d="M556.08,433.26c47.65-6,111.57-91.21,144.26-194,168.17-70.51,192-236.65,192-236.69S804.32,144.47,649.69,196c-16.23,52.58-44.62,216.78-131,219,.8.75,1.65,1.53,2.56,2.32A68.09,68.09,0,0,0,556.08,433.26Z"/><path class="cls-3" d="M562.7,450c-19.64-6.16-33.85-17.12-41.41-32.7-.91-.79-1.77-1.56-2.56-2.32-.37,2.67-.56,8.5-.72,16.33,22.36,46.48,65.75,92,180.68,52.4-50.32,4.83-69.55-3.43-69.55-3.43.66-.17,49.57,4.85,141.76-66.55C682.39,452.91,608.05,464.27,562.7,450Z"/><path class="cls-3" d="M517.55,479.45c-.05.78-.1,1.6-.15,2.45,2,20.52,9.37,69.2,9.38,69.29,4,.9,10.13,2.21,17.72,3.57,23,4.13,59.87,8.74,95.59,3.87h.06C592.35,559.07,533.63,548.78,517.55,479.45Z"/><path class="cls-4" d="M518,431.34c-.11,5.22-.2,11.33-.33,18C523.14,459.66,528,470.12,534,481c23,41.89,117.45,61.6,208.69,31.92,18.85-15.2,40.42-51.75,41.11-53-9.69,4.09-48.61,20.14-85.11,23.9C583.76,523.37,540.36,477.82,518,431.34Z"/><path class="cls-9" d="M534,481c-6-10.83-10.85-21.29-16.31-31.64-.16,8.53-.37,17.94-.73,27.5.19.89.39,1.77.6,2.64,16.08,69.33,74.8,79.62,122.6,79.17h0q3.15-.43,6.33-1l.33-.05c41.37-5,77.19-29.61,95.87-44.74C651.44,542.55,557,522.84,534,481Z"/><path class="cls-6" d="M881.64,275.91c-20.79,20.16-102.16,77.73-158.33,80l-.52,0c-82.67,69.78-134.7,82.24-166.71,77.28a68.09,68.09,0,0,1-34.79-15.93c7.56,15.58,21.78,26.54,41.41,32.7,148.47-25.89,272.2-103.81,291.23-120.51l0,0C868,310.6,881.38,276.76,881.64,275.91Z"/><path class="cls-10" d="M562.7,450c88.71,23.76,158.26-2.86,208.22-36.28s83-84.2,83-84.23C840,339.58,711.17,424.14,562.7,450Z"/><path class="cls-2" d="M180.87,356.65c82.67,69.79,134.7,82.24,166.7,77.28-47.65-6-111.57-91.22-144.25-194C99.36,192.42,33.83,98.35,13,10.57c.47.8,1,1.66,1.52,2.55q-1.72-5-3.18-9.91l-.48-1v0l-.17-.37,0,0c-.11-.24-.21-.45-.28-.61l0,0L10.24,1l0-.06,0-.11,0,0,0-.09c-.33,1-.64,2.06-1,3.09C-44.37,179.39,152.73,338.16,180.87,356.65Z"/><path class="cls-8" d="M13,10.57C33.83,98.35,99.36,192.42,203.32,239.9c32.69,102.8,96.6,188,144.25,194a68.09,68.09,0,0,0,32.75-14.23,43.72,43.72,0,0,0-1.32-4.78,58.12,58.12,0,0,1-16.27-4h0c-1.05-.42-2.09-.86-3.12-1.33h0C309.81,386.66,262.26,209.8,262,209.31,80.85,125.39,13.42,11.37,13,10.57Z"/><path class="cls-3" d="M382.3,438.63c-.08-1-.17-1.9-.25-2.85-.35-4.52-.55-9.63-1.42-14.52C372.74,435.11,359.19,445,341,450.7c-45.35,14.23-119.68,2.88-208.2-36.27,38.86,28.57,88.14,53.74,148.52,68.24h0c-35.66,2.95-56.08,4.19-76.29,1.74C314.42,522.15,359,482.63,382.3,438.63Z"/><path class="cls-6" d="M341,450.7c18.23-5.72,31.78-15.58,39.68-29.44q-.14-.79-.31-1.57a68.09,68.09,0,0,1-32.75,14.23c-32,5-84-7.49-166.7-77.28l-.52,0-.68,0c-56.14-2.75-136.94-59.94-157.65-80,.25.83.52,1.69.8,2.55,4.56,13.85,13.46,31.65,26.9,51.07C65,325.15,192.49,424.81,341,450.7Z"/><path class="cls-5" d="M49.72,330.19c18.69,27,46.17,57.14,83,84.24,88.52,39.15,162.85,50.51,208.2,36.27C192.49,424.81,65,325.15,49.72,330.19Z"/><path class="cls-7" d="M465.83,538.44c43.25-39.52,39.11-102.05,39.83-157.49-.57-3.19-1.08-6.47-1.54-9.79l0-.12c-.15-1.08-.29-2.17-.42-3.25v-.05c-7.6,39.51,1,80.4-18.95,117.31-22.52,42.22-67.34,54.3-108.12,75a131.5,131.5,0,0,1-5,24.13l0,.09q-.6,2-1.26,4v0c-1.77,5.32-3.82,10.63-6.1,15.88l-.17.39c-.49,1.13-1,2.27-1.51,3.39l-.3.65q-.74,1.6-1.5,3.2l-.31.64c-.55,1.13-1.1,2.26-1.66,3.39l-.18.36q-1.93,3.84-4,7.61h0C391.89,595.52,429.5,570,465.83,538.44Z"/><path class="cls-6" d="M420.1,627C534.88,502.18,511,427.51,512.49,406.08h0l.09.2a83.15,83.15,0,0,1-4.09-12.21l0-.06c-.17-.65-.34-1.32-.5-2v0c-.68-2.76-1.31-5.68-1.88-8.69l0-.09c-.14-.74-.28-1.49-.41-2.25-.71,55.44,3.42,118-39.83,157.49C429.5,570,391.89,595.52,354.54,623.76c0,0-33.91,55.16-63,85.83C300.38,711.83,360.66,687.38,420.1,627Z"/><path class="cls-8" d="M420.1,627c-38.78,37.45-107.31,70.76-128.55,82.6,0,.12,11.3,56.91,33.37,110.16,2.35-24.85,16.73-113.59,42.31-140.89C387.5,660.7,405,643.41,420.1,627Z"/><path class="cls-4" d="M489.56,749.88c19.92,24.64,25,115.53,25.58,171.25v.08q0,1.76,0,3.47v.07c0,.56,0,1.12,0,1.68v0c0,.56,0,1.13,0,1.68v0c0,.54,0,1.09,0,1.62v.1c0,.52,0,1,0,1.56v.06q0,.78,0,1.55v1.71c0,.48,0,1,0,1.44,0,.05,0,.1,0,.15,0,.47,0,.93,0,1.39v.14c0,.46,0,.92,0,1.38v.06c0,.46,0,.93,0,1.38,0,.06,0,.11,0,.17,0,.43,0,.85,0,1.28,0,0,0,.09,0,.13,0,.43,0,.85,0,1.27,0,0,0,.08,0,.12,0,.42,0,.84,0,1.25V945c0,.4,0,.81,0,1.2,0,.06,0,.11,0,.17,0,.38,0,.76,0,1.13,0,.05,0,.1,0,.15,0,.37,0,.74,0,1.1,0,.07,0,.13,0,.2,0,.35,0,.69,0,1,0,0,0,.09,0,.14,0,.35,0,.71,0,1.05a.73.73,0,0,1,0,.08c0,.36,0,.71,0,1.06a.77.77,0,0,0,0,.08c0,.34,0,.67,0,1,0,.07,0,.15,0,.22,0,.29,0,.57,0,.85,0,0,0,.08,0,.13,0,.29,0,.59,0,.88,0,.06,0,.13,0,.2,0,.26,0,.52,0,.78,0,.06,0,.12,0,.19,0,.25,0,.5,0,.74,0,.07,0,.14,0,.21,0,.23,0,.46,0,.68s0,.16,0,.23,0,.4,0,.59,0,.25,0,.37,0,.29,0,.43,0,.24,0,.36,0,.26,0,.38,0,.19,0,.29,0,.29,0,.43,0,.09,0,.14,0,.35,0,.52,0,.11,0,.17c0,.56-.07,1.06-.11,1.5-.08,1-.16,1.94-.25,2.91C514,970,558.7,859.64,566,848.35a258.9,258.9,0,0,0-1.4-43.45C553.43,717.2,543.31,688.68,537.37,679c6.41-7.13-.48-52.43-.91-83.57.06.17.17.44.32.78l0-.09h0c-1.07-2.75-3.95-11.15-4.31-12.33l-.22-.71q-.61-2-1.16-4C536.8,616.32,483.41,686.13,489.56,749.88Z"/><path class="cls-9" d="M536.78,596.17c-.15-.34-.26-.6-.32-.78-11.07,73,.89,83.41.76,83.13,25,26.53,40,124.44,42.62,139.62-.15-.84-.33-1.93-.55-3.25,18.09-58.91-33-164-22.12-178,0-.11,0-.21,0-.32a44.83,44.83,0,0,1-2.51-4.47h0c-.78-1.32-1.55-2.64-2.32-4l-.26-.46q-1.13-2-2.23-4a.16.16,0,0,1,0,0q-2.33-4.22-4.5-8.53l-.12-.23c-2.9-5.78-5.58-11.66-8-17.6h0Z"/><path class="cls-7" d="M437.89,673.89C394.71,738.09,347.53,803.32,339,847h0c0,.6,0,1.2.07,1.8,7.35,11.25,52.53,121.44,52.2,118-.09-1-3-181,24.27-217.18l.43-.6,1.57-2.24C419.46,725.55,427.28,700.09,437.89,673.89Z"/><path class="cls-11" d="M437.89,673.89c37.07-39.78,78.85-120,79-119.77.52-2.94-3.61-28.49-3.39-31.28,1.87-13.3,2.88-29.72,3.48-45.76,0-.09,0-.18,0-.26.36-9.56.57-19,.73-27.5.12-6.64.22-12.75.33-18,.16-7.82.35-13.66.72-16.33a27.91,27.91,0,0,1-6.24-8.94C511,427.51,534.88,502.18,420.1,627c-15.1,16.42-32.6,33.71-52.88,51.86-.21.52-.42,1.08-.64,1.66C356.93,706.13,336.77,787.6,339,846.94V847h0C347.53,803.32,394.71,738.09,437.89,673.89Z"/><path class="cls-9" d="M501.69,329.73c0-.53,0-1.06.07-1.57a.06.06,0,0,0,0,0c0-.09,0-.19,0-.27-28.55,9.63-51.15,90.26-117.11,87.41-1,0-1.93-.07-2.89-.13l-2.79-.29,0,.05.12.35a36.89,36.89,0,0,1,1.21,4.43q.17.78.31,1.57c.87,4.89,1.07,10,1.42,14.52.09,1,.17,1.9.25,2.85-23.31,44-67.89,83.51-177.34,45.77-22.09-2.68-43.92-9.78-85.11-23.9l.46.84C132.11,482.87,145.94,500,161,513.53c78.7,38.3,200,21,223-51.93q.23,4.65.35,9.29c-9.57,59-65.71,88.9-120.81,88.39,2.2.3,4.39.57,6.57.82,44.95,5.24,85.5.83,106.81-8.25l.28-.34s0,0,0,0,0-.05-.11-.06h0c-.33,0,1.8-23.48,4.18-35.16.25-1.33.46-2.67.67-4,18-24.64,46.62-41.2,70.79-61.74,12.78-10.65,21.07-24.41,27.11-39.26.56-.85,1.11-1.71,1.64-2.6,8.6-15.29,11.92-38.65,20.64-55.83A207.81,207.81,0,0,1,501.69,329.73Z"/><path class="cls-10" d="M531.12,579c-.32-1.17-5.07-20.25-4.34-27.82,0-.08-7.34-48.76-9.38-69.29-.19-1.92-.33-3.59-.42-5l0,.13c-.6,16-4.08,51.43-4.6,54.37-.12-.19,10.6-57.44-.38-.51s-51.78,87.87-74.08,143c-10.61,26.21-18.43,51.66-20.3,72.93L416,749.05c9.12,60-2.4,346.13,38.09,547.75,40.25-198.21,25.71-487.93,34.6-547.93l.19.22h0l.65.78C483.41,686.13,536.8,616.32,531.12,579Z"/><path class="cls-3" d="M484.72,485.06c19.93-36.91,11.35-77.8,18.95-117.31,0,0,0,0,0,0-.44-3.52-.81-7.05-1.11-10.55a1.45,1.45,0,0,1,0-.23c0-.31-.47-3.38-.52-4.08-8.72,17.18-12,40.54-20.64,55.83-.53.89-1.08,1.75-1.64,2.6-6,14.85-14.33,28.61-27.11,39.26-24.17,20.54-52.77,37.1-70.79,61.74-.21,1.33-.42,2.66-.67,4-2.38,11.68-4.51,35.11-4.18,35.16h0c.07,0,.11,0,.11.06s0,0,0,0c0,.92-.06,1.84-.11,2.77,0,.41,0,.82-.07,1.22h0c0,.29,0,.57-.07.85,0,.08,0,.16,0,.24q-.13,1.7-.31,3.41C417.38,539.35,462.2,527.27,484.72,485.06ZM379.32,553.19l.23-.06Z"/></g></g></svg>